<?xml version="1.0" standalone="no"?>
<!DOCTYPE svg PUBLIC "-//W3C//DTD SVG 20010904//EN"
 "http://www.w3.org/TR/2001/REC-SVG-20010904/DTD/svg10.dtd">
<svg version="1.0" xmlns="http://www.w3.org/2000/svg"
 width="479pt" height="135.485pt" viewBox="281 279.486 479 135.485"
 preserveAspectRatio="xMidYMid meet">

<g transform="translate(0.000000,720.000000) scale(0.100000,-0.100000)"
fill="#ffffff" stroke="none">
<path d="M5957 4396 c-69 -25 -117 -88 -117 -153 0 -49 38 -111 86 -139 38
-23 54 -26 105 -22 38 3 69 11 87 25 101 75 97 220 -8 274 -50 26 -108 31
-153 15z"/>
<path d="M2970 4266 c-12 -32 -13 -761 -1 -784 5 -10 98 -60 205 -112 l196
-93 0 -40 c0 -33 -3 -38 -17 -32 -10 3 -120 47 -245 97 l-228 91 -2 346 c-3
324 -4 346 -21 349 -46 9 -47 1 -47 -369 0 -286 2 -350 14 -362 15 -14 107
-54 411 -176 l170 -68 80 29 c80 29 236 94 413 170 l92 40 0 370 0 369 -27 -3
-28 -3 -3 -347 c-1 -192 -4 -348 -6 -348 -1 0 -108 -43 -237 -95 -129 -52
-237 -95 -241 -95 -5 0 -8 17 -8 39 l0 38 168 78 c92 42 184 88 205 101 l37
24 0 386 c0 377 -4 424 -32 424 -12 0 -173 -72 -323 -144 l-90 -43 -85 42
c-128 64 -310 145 -326 145 -8 0 -19 -11 -24 -24z m239 -143 l161 -76 0 -348
0 -349 -52 24 c-29 13 -106 49 -170 80 l-118 56 0 345 c0 208 4 345 9 345 6 0
82 -34 170 -77z m571 -268 l0 -345 -107 -51 c-60 -29 -136 -64 -171 -80 l-62
-28 2 350 3 349 155 75 c85 40 161 74 168 74 9 1 12 -74 12 -344z"/>
<path d="M7441 4234 c-42 -35 -44 -92 -4 -123 74 -59 163 -26 163 59 0 83 -93
120 -159 64z"/>
<path d="M5330 3775 l0 -455 80 0 80 0 0 455 0 455 -80 0 -80 0 0 -455z"/>
<path d="M4370 3750 l0 -430 268 0 c272 0 327 6 397 42 43 23 72 57 90 107 21
61 19 118 -9 177 -24 53 -56 82 -116 106 l-34 14 37 23 c54 33 81 91 81 171 0
69 -16 110 -56 146 -66 61 -143 74 -435 74 l-223 0 0 -430z m493 283 c45 -23
56 -41 57 -94 0 -57 -26 -94 -78 -109 -20 -5 -97 -10 -169 -10 l-133 0 0 115
0 115 145 0 c116 0 153 -3 178 -17z m42 -357 c61 -26 91 -106 61 -164 -32 -61
-95 -76 -292 -66 l-134 7 0 119 0 118 165 0 c120 0 175 -4 200 -14z"/>
<path d="M5951 3969 c-115 -20 -201 -81 -248 -177 -24 -50 -27 -69 -28 -152 0
-84 3 -102 28 -152 124 -254 522 -246 641 11 32 69 30 228 -3 291 -29 56 -85
116 -131 140 -72 37 -176 53 -259 39z m137 -134 c80 -34 122 -102 122 -200 0
-80 -26 -136 -81 -172 -36 -24 -53 -28 -109 -28 -84 0 -136 31 -170 100 -31
65 -25 172 13 230 49 74 144 103 225 70z"/>
<path d="M6724 3964 c-219 -67 -292 -350 -137 -534 15 -18 54 -46 88 -61 51
-25 72 -29 140 -29 91 0 149 21 203 73 l32 31 0 -67 c0 -80 -16 -123 -59 -160
-71 -59 -205 -62 -317 -7 -54 26 -68 30 -76 19 -14 -22 -48 -88 -48 -94 0 -12
125 -65 179 -76 89 -18 236 -7 302 23 103 47 152 120 169 250 11 86 13 625 3
630 -5 2 -38 2 -75 0 l-68 -4 0 -46 0 -46 -30 32 c-63 69 -200 99 -306 66z
m213 -129 c75 -31 113 -92 113 -178 0 -79 -32 -134 -99 -169 -104 -55 -216
-22 -269 77 -25 48 -21 142 9 195 44 79 155 113 246 75z"/>
<path d="M7430 3643 l0 -323 80 0 80 0 -2 321 -3 320 -78 2 -77 2 0 -322z"/>
</g>
</svg>
